<svg xmlns="http://www.w3.org/2000/svg" width="492.00003" height="177.87959" viewBox="0 0 492.00002 177.8796"><defs><clipPath id="b"><path d="M20 723.79h176.692v48.28H20v-48.28z"/></clipPath><clipPath id="a"><path d="M12 717.035h187.6v60.034H12v-60.035z"/></clipPath></defs><path d="M470.5 17.346C437.61-18.93 225.986 13.7 135.99 33.36l-2.097.453c-.432.078-.717.493-.648.92.078.438.488.723.925.65l2.08-.407c74.56-13.276 229.614-31.68 262.98 1.4 10.18 10.094 7.75 23.102-4.05 38.44 6.365 4.09 10.897 10.517 12.938 18.565 46.076-30.654 77.038-59.87 62.383-76.034M333.554 128.21c-.02.016-.043.03-.065.047-20.865 14.768-45.58 30.283-72.17 46.57l-1.05.61c-.355.254-.445.742-.186 1.106.247.36.74.445 1.1.19l.885-.467c22.552-11.77 48.45-25.74 74.513-40.074.143-.073.28-.156.42-.23-1.436-2.347-2.608-4.924-3.447-7.752" fill="#d22f2f"/><g fill="#004879"><g clip-path="url(#a)" transform="matrix(4.32435 0 0 -4.32435 -85.487 3339.702)"><path d="M97.486 745.015c-.175 5.037 3.772 10.188 9.504 10.188 3.834 0 6.343-2.555 6.484-6.468.183-5.312-3.503-10.19-9.504-10.19-3.835 0-6.344 2.55-6.484 6.47m2.494-.158c.098-2.952 1.965-5.37 4.4-5.37 4.72 0 6.73 5.796 6.59 9.67-.1 2.958-2.015 5.37-4.447 5.37-4.06 0-6.682-5.77-6.543-9.67M48.167 749.444c-.02-.463-.1-.868-.224-1.576l-.844-4.732c-.073-.42.083-.75.473-.976l-.026-.185-4.827.007-.044 1.204c-.703-.425-1.55-.782-2.32-.992-.764-.196-1.383-.283-2.312-.283-1.56 0-2.453.163-3.07.703-.625.558-.928.927-.9 1.694.025.442.254 1.008.585 1.405.333.402.788.665 1.284.897.498.237 1.084.408 1.937.543.855.14 2.044.277 3.636.41.837.07 1.347.263 1.587.358.332.13.463.274.512.544.09.487-.067.764-.712.893-1.74.342-5-.22-6.68-.642l.914 2.463c2.216.324 4.293.53 6.478.53 3.475 0 4.587-.99 4.552-2.264m-4.983-3.1c-.205-.076-.47-.153-.798-.22-.327-.075-.925-.182-1.793-.32-.598-.092-1.012-.218-1.25-.387-.225-.168-.358-.367-.397-.61-.046-.26.04-.468.264-.63.23-.16.613-.243 1.155-.243.406 0 .805.065 1.19.188.39.128.72.302.974.517.184.16.317.364.417.61.057.16.14.523.237 1.095M64.09 753.62c.14.777 1.366 1.408 2.736 1.408 1.373 0 2.375-.63 2.243-1.408-.146-.778-1.37-1.407-2.745-1.407-1.377 0-2.373.63-2.234 1.407m-1.93-11.645l1.675 9.455h4.622l-1.675-9.455H62.16z"/></g><g clip-path="url(#b)" transform="matrix(4.32435 0 0 -4.32435 -85.487 3339.702)"><path d="M89.854 749.426c-.02-.464-.1-.873-.228-1.574l-.838-4.738c-.072-.418.083-.746.47-.98l-.028-.163-4.825-.008-.037 1.205c-.706-.427-1.56-.782-2.32-.99-.77-.2-1.388-.284-2.323-.284-1.558 0-2.444.156-3.063.7-.63.56-.932.927-.898 1.692.017.444.248 1.015.58 1.405.335.407.79.665 1.29.9.497.233 1.086.406 1.928.548.86.133 2.05.277 3.643.41.83.07 1.34.258 1.577.35.337.13.47.275.52.547.085.477-.068.762-.71.892-1.747.345-4.997-.222-6.678-.64l.91 2.463c2.223.325 4.29.532 6.478.532 3.473 0 4.58-.995 4.552-2.266m-4.982-3.104c-.207-.07-.476-.147-.802-.222-.324-.077-.922-.173-1.796-.316-.594-.094-1.016-.22-1.244-.39-.222-.16-.354-.363-.4-.607-.05-.26.046-.472.263-.63.234-.16.62-.238 1.163-.238.403 0 .797.06 1.186.18.394.133.72.3.977.518.176.16.314.37.41.615.06.158.14.522.242 1.09M33.444 745.374c-1.504-.298-2.35-.413-3.84-.413-2.207 0-3.96 1.097-3.866 3.107.068 1.338 1.654 4.163 5.683 4.163 1.268 0 2.26-.224 3.594-.984l.585 3.284c-1.814.685-3.015.788-4.57.77-5.28-.056-10.355-2.457-10.983-7.34-.64-4.96 5.42-6.207 8.11-6.195 1.552.004 3.167.068 4.674.224l.614 3.384z"/></g><path d="M221.56 90.014l1.436-8.324 20.908-4.55-2.227 12.874h10.236l-1.942 8.238-9.932-.026-6.032 32.883s-20.126-.13-20.2 0l6.01-32.802h-7.6l1.543-8.294h7.8zM323.363 131.11l-20.36.03 10.242-57.046 19.83.558-9.712 56.46zM120.484 145.257l9.73-54.803h17.548l-1.358 6.997c1.526-2.088 3.956-3.804 7.317-5.2 3.386-1.385 7.196-2.414 11.34-2.414 4.578 0 7.402.246 10.83 2.02 3.413 1.79 5.787 4.38 7.085 7.76 1.314 3.327 1.587 7.067.878 11.132-1.19 6.755-4.485 12.083-9.882 15.996-5.356 3.91-10.174 4.94-17.062 4.964-2.44 0-4.476-.255-6.17-.665-1.658-.433-2.976-.96-3.984-1.6-.956-.645-1.976-1.54-3.29-2.97l-3.27 18.784h-19.71zm36.393-45.423c-2.62 0-4.99.79-7.1 2.382-2.085 1.592-3.412 3.91-3.953 7.002-.627 3.567-.26 6.127 1.155 7.714 1.426 1.57 3.48 2.357 6.178 2.357 1.817 0 3.702-.325 5.086-1.01 1.712-.902 2.893-1.858 3.913-3.363 1.103-1.587 1.825-3.347 2.197-5.397.57-3.226.09-5.647-1.41-7.24-1.453-1.638-3.46-2.446-6.067-2.446M485.105 130.024l1.583 1.072c-3.996 8.143-12.147 14.7-21.712 14.7-7.823 0-14.236-5.208-14.573-14.99C449.77 113.284 466.19 97 479.635 97c5.77 0 11.118 2.52 11.356 8.73.494 13.937-19.074 18.2-31.97 18.49-.42 1.453-.574 2.92-.496 5.146.207 5.778 3.71 10.643 10.936 10.643 6.244 0 12.49-5.03 15.645-9.986m-1.755-25.168c-.113-3.3-1.77-5.514-5.172-5.514-8.2 0-16.917 16.06-18.422 22.535 13.453 0 23.922-8.01 23.594-17.02"/><path d="M404.92 104.395c1.387-.186 3.623-.43 4.587-.43 1.47 0 2.854.278 2.923 1.736.026.865-1.535 7.07-1.863 8.51l-3.118 13.748c-1.255 5.626-2.622 11.516-3.833 16.17h8.01l4.5-21.78c13.74-14.304 19.024-18.97 22.267-18.97 1.457 0 2.465.766 2.534 2.513.082 2.518-1.48 8.234-2.024 9.873l-4.592 15.884c-1.047 3.572-1.817 6.79-1.747 9.09.142 3.49 2.248 5.037 5.38 5.037 5.854 0 10.096-6.1 13.815-12.095l-1.09-1.964c-1.5 2.408-4.972 7.667-7.71 7.667-.87 0-1.682-.575-1.712-2.028-.082-1.86.705-4.632 1.24-6.474l5.104-18.606c1.366-5.125 2.028-8.424 1.993-10.18-.13-3.472-2.158-5.098-5.267-5.098-5.267 0-12.268 3.848-27.08 20.9h-.215l1.868-8.32c1.013-4.55 2.003-9.298 2.967-12.58-5.124 1.846-12.467 3.913-17.007 4.79l.07 2.61z"/></g></svg>