<svg id="Layer_1" xmlns="http://www.w3.org/2000/svg" x="0px" y="0px" viewBox="0 0 66 33"><style>.st0{fill:#CCCCCC;}</style><path class="st0" d="M24.7 10.1v3H23v-3c0-.6-.4-1-.9-1.1-.5 0-1 .3-1 1.1v3h-1.6V7.5h1.7v.8c.3-.6.8-.9 1.5-.9.7-.1 1.5.3 1.8 1 .3-.6 1-1 1.7-1 1.3 0 2.2.8 2.2 2.5v3.2h-1.6v-3c0-.7-.4-1.1-.9-1.1s-1.2.3-1.2 1.1zm4.6.2c0-1.6 1.3-2.9 2.9-2.9 1.6 0 2.9 1.3 2.9 2.9 0 1.6-1.3 2.9-2.9 2.9-1.6 0-2.9-1.3-2.9-2.9zm4.2 0c0-.7-.6-1.3-1.3-1.3-.7 0-1.2.6-1.2 1.3 0 .7.6 1.3 1.3 1.3.6 0 1.2-.6 1.2-1.3zm4.5 2.8h-1.7V7.5H38v1.4c.1-.8.8-1.4 1.6-1.5.3 0 .7.1 1 .2l-.3 1.5c-.3-.1-.6-.2-.8-.2-1 0-1.4.8-1.4 2.2l-.1 2zm8.5-1c-.6.8-1.6 1.2-2.5 1.1-1.6 0-2.9-1.2-2.9-2.8v-.2c-.1-1.6 1.1-3 2.7-3.1 1.6-.1 3 1.1 3.1 2.7v.8h-4.1c.1.6.8.9 1.4.9.5 0 .9-.2 1.2-.5l1.1 1.1zm-1.4-2.3c-.1-.6-.6-1-1.2-1s-1.1.4-1.3 1h2.5zM16.4 19.9c1 0 1.9.4 2.4 1.2l-1.4 1c-.2-.4-.6-.6-1.1-.6-.7 0-1.4.5-1.4 1.3s.6 1.4 1.4 1.3c.4 0 .9-.2 1.1-.5l1.4 1c-.6.8-1.5 1.2-2.4 1.2-1.6 0-3-1.3-3-2.9 0-1.6 1.3-2.9 2.9-3h.1zm3.2 2.9c0-1.6 1.2-2.9 2.7-2.9h.2c1.6 0 2.9 1.3 2.9 2.9 0 1.6-1.3 2.9-2.9 2.9-1.6 0-2.9-1.2-2.9-2.8v-.1zm4.1 0c0-.7-.6-1.3-1.3-1.3s-1.3.6-1.3 1.3c0 .7.6 1.3 1.3 1.3.8 0 1.3-.5 1.3-1.3 0 .1 0 .1 0 0zm8.1-.1v3h-1.7v-3c0-.6-.4-1-.9-1.1-.5 0-1 .3-1 1.1v3h-1.6v-5.6h1.7v.8c.3-.6.8-.9 1.5-.9.7-.1 1.5.3 1.8 1 .3-.6 1-1 1.7-1 1.3 0 2.2.9 2.2 2.5v3.1h-1.7v-3c0-.7-.4-1.1-.9-1.1-.6 0-1.1.4-1.1 1.2zm5.9-5.7c.6 0 1 .4 1 1s-.4 1-1 1-1-.4-1-1 .4-1 1-1zm.8 8.6h-1.7V20h1.7v5.6zm3.2 0H40V20h1.7v.8c.3-.6 1-.9 1.6-.9 1.3 0 2 .8 2 2.4v3.4h-1.7v-3c0-.7-.4-1.1-1-1.1s-1 .3-1 1.1v2.9zm7.7 1.3c1.3 0 1.6-.9 1.5-2-.4.6-1 .9-1.7.8-1.6 0-2.9-1.3-2.9-2.9 0-1.6 1.3-2.9 2.9-2.9.7 0 1.3.3 1.7.8V20h1.6v4.8c0 2.4-1.2 3.6-3.2 3.6-1.2 0-2.3-.7-2.8-1.7L48 26c.2.6.8.9 1.4.9zm.2-5.4c-.7 0-1.3.6-1.3 1.3 0 .7.6 1.3 1.3 1.3.8 0 1.4-.6 1.4-1.3 0-.7-.6-1.3-1.3-1.3h-.1z"/></svg>